<?xml version="1.0" encoding="UTF-8"?>
<svg id="Layer_1" xmlns="http://www.w3.org/2000/svg" version="1.1" viewBox="0 0 32 32">
  <!-- Generator: Adobe Illustrator 29.5.1, SVG Export Plug-In . SVG Version: 2.1.0 Build 141)  -->
  <defs>
    <style>
      .st0 {
        fill: #fff;
      }
    </style>
  </defs>
  <path d="M31.99,14.24c-.12-3.84-.2-8.27-3.03-11.2C25.74,0,20.87.14,16.57,0c-.19,0-.38,0-.57,0-.01,0-.03,0-.04,0-2.26,0-4.48.07-6.74.4C3.88,1.1,1.12,3.83.41,9.17.05,11.63-.01,14.04,0,16.52c.14,4.32-.02,9.21,3.04,12.45,2.92,2.83,7.35,2.9,11.2,3.02.56,0,1.15,0,1.76,0,0,0,0,0,0,0,4.41.02,9.84,0,12.96-2.97l.03-.03c3.42-3.53,2.98-10.13,3-14.76Z"/>
  <path class="st0" d="M31.99,14.24c-.12-3.84-.2-8.27-3.03-11.2C25.74,0,20.87.14,16.57,0c-.19,0-.38,0-.57,0-.01,0-.03,0-.04,0-2.26,0-4.48.07-6.74.4C3.88,1.1,1.12,3.83.41,9.17.05,11.63-.01,14.04,0,16.52c.14,4.32-.02,9.21,3.04,12.45,2.92,2.83,7.35,2.9,11.2,3.02.56,0,1.15,0,1.76,0,0,0,0,0,0,0,4.41.02,9.84,0,12.96-2.97l.03-.03c3.42-3.53,2.98-10.13,3-14.76ZM16.34,18.19c-.13.29-.45.85-.55,1.03-.22.36-.46.71-.75,1.02-.91,1-2.38,1.62-3.71,1.17-1.33-.45-1.82-1.67-1.79-2.95.02-.97.25-1.92.48-2.87.11-.47.23-.95.32-1.43.08-.4.35-1.32-.18-1.55-.25-.11-.5.06-.66.24-.38.41-.62.98-.82,1.5-.27.7-.48,1.42-.61,2.16-.21,1.25-.26,2.53-.15,3.79.02.29.08.92.08.92H2.92v-10.37h4.85c-.6,1.82-1.62,4.23-1.67,6.92,0,.31.05.99.5.8.42-.17.51-1.01.57-1.38.26-1.76.68-3.56,1.74-4.98.53-.7,1.22-1.3,2.04-1.59.77-.27,1.67-.25,2.37.16.05.03.1.06.15.09.81.55,1.21,1.56,1.25,2.54.08,1.73-.41,3.43-.8,5.1-.07.28-.12.66.19.82.23.12.5,0,.72-.1.2-.1,1.13-.83,1.45-1.09.03-.02.06,0,.05.04ZM29.08,10.86v10.36h0s-4.85,0-4.85,0c.6-1.82,1.62-4.23,1.67-6.92,0-.31-.05-.98-.5-.8-.41.18-.5,1-.56,1.37-.01.08-.03.16-.04.23-.2,1.48-.56,2.95-1.33,4.19-.01.02-.2.31-.28.43,0,0-.15.2-.16.21-.03.04-.34.39-.44.49-.44.44-.95.73-1.55.94-.77.27-1.67.25-2.37-.16-.05-.03-.1-.06-.15-.09-.81-.55-1.21-1.48-1.26-2.46-.02-.37,0-1.44,0-1.6-.03-1.45.18-2.89.16-4.33,0,0,0,0,0,0,0-.28-.01-.55-.04-.83-.01-.14-.03-.28-.05-.41,0,0,0,0,0,0-.03-.2-.06-.4-.11-.64h1.1s0,0,0,0h2.74s.04,0,.04,0h1.27c.05.62.09,1.45.08,2.27,0,.1,0,.19,0,.28,0,.07,0,.15,0,.22,0,.28-.03.57-.07.85-.04.39-.09.65-.1.74-.08.43-.18.85-.28,1.27-.11.47-.23.95-.32,1.43-.08.4-.35,1.32.18,1.55.12.05.24.04.35,0,.11-.05.21-.14.3-.23.38-.41.62-.98.82-1.5.27-.7.48-1.42.61-2.16.21-1.25.26-2.53.15-3.79-.02-.29-.08-.92-.08-.92h.02s0,0,0,0h5.06Z"/>
</svg>