<?xml version="1.0" encoding="UTF-8"?>
<svg id="Layer_1" xmlns="http://www.w3.org/2000/svg" xmlns:xlink="http://www.w3.org/1999/xlink" version="1.1" viewBox="0 0 800 800">
  <!-- Generator: Adobe Illustrator 29.5.1, SVG Export Plug-In . SVG Version: 2.1.0 Build 141)  -->
  <defs>
    <style>
      .st0 {
        fill: none;
      }

      .st1 {
        fill: #fff;
      }

      .st2 {
        clip-path: url(#clippath);
      }
    </style>
    <clipPath id="clippath">
      <rect class="st0" y="0" width="800" height="800"/>
    </clipPath>
  </defs>
  <g class="st2">
    <path class="st1" d="M400,0C418.41,0,433.33,14.92,433.33,33.33v133.33c0,18.41-14.92,33.33-33.33,33.33s-33.33-14.92-33.33-33.33V33.33C366.67,14.92,381.59,0,400,0ZM164.3,117.17c-13.24-12.79-34.34-12.42-47.13.82-12.48,12.92-12.48,33.4,0,46.31l94.27,94.27c13.24,12.79,34.34,12.42,47.13-.82,12.48-12.92,12.48-33.4,0-46.31l-94.23-94.27h-.03ZM33.33,366.67c-18.41,0-33.33,14.92-33.33,33.33s14.92,33.33,33.33,33.33h133.33c18.41,0,33.33-14.92,33.33-33.33s-14.92-33.33-33.33-33.33H33.33ZM600,400c0-18.41,14.92-33.33,33.33-33.33h133.33c18.41,0,33.33,14.92,33.33,33.33s-14.92,33.33-33.33,33.33h-133.33c-18.41,0-33.33-14.92-33.33-33.33ZM588.57,541.43c-13.24-12.79-34.34-12.42-47.13.82-12.48,12.92-12.48,33.4,0,46.31l94.27,94.27c12.79,13.24,33.89,13.61,47.13.82,13.24-12.79,13.61-33.89.82-47.13-.27-.28-.54-.55-.82-.82l-94.27-94.27h0ZM258.57,588.57c13.24-12.79,13.61-33.89.82-47.13-12.79-13.24-33.89-13.61-47.13-.82-.28.27-.55.54-.82.82l-94.27,94.23c-13.24,12.79-13.61,33.89-.82,47.13,12.79,13.24,33.89,13.61,47.13.82.28-.27.55-.54.82-.82l94.27-94.27v.03ZM682.83,164.3c12.79-13.24,12.42-34.34-.82-47.13-12.92-12.48-33.4-12.48-46.31,0l-94.27,94.27c-13.24,12.79-13.61,33.89-.82,47.13,12.79,13.24,33.89,13.61,47.13.82.28-.27.55-.54.82-.82l94.27-94.27ZM433.33,633.33c0-18.41-14.92-33.33-33.33-33.33s-33.33,14.92-33.33,33.33v133.33c0,18.41,14.92,33.33,33.33,33.33s33.33-14.92,33.33-33.33v-133.33ZM400,233.33c-92.05,0-166.67,74.62-166.67,166.67s74.62,166.67,166.67,166.67,166.67-74.62,166.67-166.67-74.62-166.67-166.67-166.67Z"/>
  </g>
</svg>